# xmcd
#
# Track frame offsets: 
#        150
#        19770
#        35370
#        36855
#        54750
#        73425
#        93023
#        108848
#        110303
#        127801
#        145201
#
# Disc length: 2186 seconds
#
# Revision: 0
# Processed by: cddbd v1.5.2PL0 Copyright (c) Steve Scherf et al.
# Submitted via: ExactAudioCopy v0.99pb5
#
DISCID=8708880b
DTITLE=Highlands Country - November 7, 2010
DYEAR=2010
DGENRE=Country
TTITLE0=Better Life
TTITLE1=Just A Closer Walk With Thee
TTITLE2=Talking
TTITLE3=What Could Be Better?
TTITLE4=He Believed
TTITLE5=Better Life
TTITLE6=Just A Closer Walk With Thee
TTITLE7=Talking
TTITLE8=What Could Be Better?
TTITLE9=Blessed Be The Name Of The Lord
TTITLE10=He Believed
EXTD=
EXTT0=
EXTT1=
EXTT2=
EXTT3=
EXTT4=
EXTT5=
EXTT6=
EXTT7=
EXTT8=
EXTT9=
EXTT10=
PLAYORDER=
